HIERARCHY
ROOT Hips
{
 OFFSET 0.000000 0.000000 0.000000
 CHANNELS 6 Xposition Yposition Zposition Yrotation Xrotation Zrotation
 JOINT Chest
 {
  OFFSET 0.000000 9.585900 0.002600
  CHANNELS 3 Yrotation Xrotation Zrotation
  JOINT Chest2
  {
   OFFSET 0.000000 9.601200 -0.005300
   CHANNELS 3 Yrotation Xrotation Zrotation
   JOINT Chest3
   {
    OFFSET 0.000000 9.561800 0.000000
    CHANNELS 3 Yrotation Xrotation Zrotation
    JOINT Chest4
    {
     OFFSET 0.000000 9.552100 0.000000
     CHANNELS 3 Yrotation Xrotation Zrotation
     JOINT Neck
     {
      OFFSET 0.000000 14.453000 0.000000
      CHANNELS 3 Yrotation Xrotation Zrotation
      JOINT Head
      {
       OFFSET 0.000000 8.936500 -0.011300
       CHANNELS 3 Yrotation Xrotation Zrotation
       End Site
       {
        OFFSET 0.000000 17.073600 -0.006000
       }
      }
     }
     JOINT RightCollar
     {
      OFFSET -2.921100 9.558500 0.000000
      CHANNELS 3 Yrotation Xrotation Zrotation
      JOINT RightShoulder
      {
       OFFSET -13.519700 0.000000 0.000000
       CHANNELS 3 Yrotation Xrotation Zrotation
       JOINT RightElbow
       {
        OFFSET 0.000000 -29.696600 0.000000
        CHANNELS 3 Yrotation Xrotation Zrotation
        JOINT RightWrist
        {
         OFFSET 0.000000 -24.004700 0.000000
         CHANNELS 3 Yrotation Xrotation Zrotation
         End Site
         {
          OFFSET 0.000000 -17.728500 0.000000
         }
        }
       }
      }
     }
     JOINT LeftCollar
     {
      OFFSET 2.921100 9.558500 0.000000
      CHANNELS 3 Yrotation Xrotation Zrotation
      JOINT LeftShoulder
      {
       OFFSET 13.519700 0.000000 0.000000
       CHANNELS 3 Yrotation Xrotation Zrotation
       JOINT LeftElbow
       {
        OFFSET 0.000000 -29.696600 0.000000
        CHANNELS 3 Yrotation Xrotation Zrotation
        JOINT LeftWrist
        {
         OFFSET 0.000000 -24.004700 0.000000
         CHANNELS 3 Yrotation Xrotation Zrotation
         End Site
         {
          OFFSET 0.000000 -17.728500 0.000000
         }
        }
       }
      }
     }
    }
   }
  }
 }
 JOINT RightHip
 {
  OFFSET -7.771700 -0.012900 -0.001300
  CHANNELS 3 Yrotation Xrotation Zrotation
  JOINT RightKnee
  {
   OFFSET 0.000000 -40.869800 0.001200
   CHANNELS 3 Yrotation Xrotation Zrotation
   JOINT RightAnkle
   {
    OFFSET 0.000000 -39.717900 0.002100
    CHANNELS 3 Yrotation Xrotation Zrotation
    JOINT RightToe
    {
     OFFSET 0.000000 -4.965400 11.033500
     CHANNELS 3 Yrotation Xrotation Zrotation
     End Site
     {
      OFFSET 0.000000 -1.423100 5.872300
     }
    }
   }
  }
 }
 JOINT LeftHip
 {
  OFFSET 7.771700 -0.012900 -0.001300
  CHANNELS 3 Yrotation Xrotation Zrotation
  JOINT LeftKnee
  {
   OFFSET 0.000000 -40.869800 0.001200
   CHANNELS 3 Yrotation Xrotation Zrotation
   JOINT LeftAnkle
   {
    OFFSET 0.000000 -39.717900 0.002100
    CHANNELS 3 Yrotation Xrotation Zrotation
    JOINT LeftToe
    {
     OFFSET 0.000000 -4.965400 11.033500
     CHANNELS 3 Yrotation Xrotation Zrotation
     End Site
     {
      OFFSET 0.000000 -1.423100 5.872300
     }
    }
   }
  }
 }
}
MOTION
Frames: 9
Frame Time: 0.008333
-54.967243 56.391153 -20.848557 -177.697675 -16.834187 -0.555980 -0.275712 17.371673 -0.502810 0.003953 1.870675 0.044105 0.011435 3.109978 0.074652 0.072865 15.323190 0.372705 1.052347 9.966556 5.438101 -0.179406 -15.182107 5.705604 -0.391536 -0.817063 1.742476 2.238118 -8.606179 -7.946727 -81.674625 -49.104040 119.438840 -17.112701 0.030970 -5.785425 -6.722471 -3.354142 1.762150 1.570940 -12.721222 7.973927 65.385908 -45.764168 -113.082219 11.652566 -10.312189 6.465325 -2.625674 -58.745816 11.857715 -36.465937 83.580252 -41.407840 -9.890301 -17.490440 14.217863 0.428310 -0.679317 0.324144 17.549134 -52.480880 -19.802042 65.810961 71.419410 66.880244 -7.660843 -14.874901 1.339398 0.412481 0.993556 0.184373
-54.965932 56.392440 -20.849920 -177.705152 -16.847235 -0.562629 -0.259432 17.380195 -0.489005 0.004710 1.871129 0.043990 0.008512 3.112371 0.073309 0.082401 15.323020 0.372972 1.057086 9.974977 5.430497 -0.184588 -15.176543 5.700269 -0.393686 -0.819654 1.738057 2.237043 -8.613292 -7.941367 -81.654013 -49.087415 119.416712 -17.130703 0.019096 -5.795371 -6.730625 -3.352159 1.769955 1.562681 -12.731054 7.984106 65.366190 -45.758010 -113.066620 11.648543 -10.301917 6.464843 -2.637381 -58.729232 11.877306 -36.373276 83.582483 -41.317280 -9.872291 -17.476509 14.177148 0.437212 -0.674550 0.323783 17.528763 -52.476969 -19.774776 65.834595 71.420869 66.899023 -7.657894 -14.868640 1.335959 0.410083 0.985046 0.184938
-54.967090 56.392919 -20.850162 -177.711213 -16.854993 -0.552990 -0.244971 17.384728 -0.491114 0.005931 1.872149 0.043964 0.024104 3.114244 0.075109 0.101247 15.329256 0.376282 1.030574 9.976403 5.425766 -0.165714 -15.158733 5.669877 -0.430717 -0.832761 1.736782 2.237037 -8.614058 -7.938353 -81.643087 -49.069379 119.406950 -17.148425 0.016550 -5.799402 -6.769043 -3.354310 1.800868 1.564502 -12.735829 7.974816 65.348602 -45.749659 -113.058830 11.653333 -10.288314 6.460700 -2.621062 -58.721763 11.873171 -36.380860 83.575988 -41.324924 -9.904563 -17.458536 14.134597 0.401084 -0.670395 0.333885 17.539997 -52.467626 -19.782331 65.835725 71.421434 66.898315 -7.660824 -14.864900 1.337335 0.411905 0.981536 0.185668
-54.966539 56.392918 -20.850435 -177.712001 -16.863012 -0.553530 -0.232488 17.390847 -0.484606 0.012601 1.872200 0.044109 0.019780 3.116603 0.072904 0.104161 15.330761 0.378581 1.032211 9.982848 5.416851 -0.171609 -15.156970 5.667978 -0.439155 -0.843268 1.731998 2.242293 -8.615099 -7.933716 -81.636996 -49.055959 119.396589 -17.180973 0.007148 -5.785731 -6.779717 -3.357490 1.816519 1.572741 -12.743971 7.982841 65.322627 -45.726244 -113.045710 11.648228 -10.268411 6.454813 -2.617841 -58.714918 11.876963 -36.429489 83.570664 -41.373239 -9.900078 -17.444724 14.116324 0.415039 -0.656188 0.300534 17.535956 -52.464899 -19.777491 65.849388 71.423906 66.911135 -7.658292 -14.858887 1.336766 0.410373 0.975189 0.185589
-54.965785 56.392010 -20.849241 -177.712773 -16.861712 -0.553481 -0.220658 17.387269 -0.481316 0.007864 1.873729 0.044250 0.027555 3.118954 0.070770 0.096671 15.329883 0.381897 1.035585 9.986611 5.411901 -0.176588 -15.158092 5.670273 -0.437030 -0.852471 1.725693 2.238187 -8.610315 -7.926752 -81.633663 -49.048993 119.400889 -17.186758 -0.000560 -5.781395 -6.780268 -3.360770 1.832753 1.581446 -12.742697 7.971994 65.295799 -45.717487 -113.032003 11.644783 -10.249388 6.462421 -2.610948 -58.718169 11.880625 -36.485038 83.563194 -41.430191 -9.900802 -17.431334 14.113939 0.418316 -0.649076 0.271714 17.538126 -52.471208 -19.776163 65.857712 71.427125 66.916848 -7.661262 -14.852120 1.337852 0.411324 0.970340 0.187035
-54.964743 56.391147 -20.849508 -177.713116 -16.868766 -0.554357 -0.207366 17.393450 -0.479262 0.020256 1.875754 0.041877 0.016012 3.119507 0.074065 0.104032 15.334752 0.382377 1.026673 9.984515 5.413252 -0.167032 -15.150163 5.656246 -0.451839 -0.863248 1.729946 2.242910 -8.616570 -7.924699 -81.627734 -49.044349 119.398976 -17.191999 -0.009912 -5.775697 -6.796199 -3.368712 1.852475 1.586771 -12.739841 7.961737 65.267562 -45.710921 -113.014095 11.644939 -10.238052 6.466388 -2.607965 -58.712486 11.883972 -36.517624 83.559599 -41.459366 -9.900223 -17.422641 14.089142 0.431678 -0.644259 0.268361 17.533375 -52.474494 -19.769484 65.881325 71.439263 66.935133 -7.648996 -14.837393 1.343057 0.402954 0.956710 0.183250
-54.962983 56.390114 -20.850196 -177.705589 -16.877146 -0.560942 -0.199920 17.402661 -0.473989 0.014795 1.875216 0.044187 0.018977 3.120821 0.072864 0.111958 15.336455 0.383329 1.036689 9.995702 5.394209 -0.165597 -15.142558 5.643068 -0.465283 -0.870972 1.732698 2.251818 -8.623603 -7.923022 -81.624426 -49.040694 119.397707 -17.194109 -0.017387 -5.781680 -6.809228 -3.371517 1.869232 1.592340 -12.737095 7.952040 65.238551 -45.699587 -112.996423 11.666545 -10.223859 6.483758 -2.617156 -58.705558 11.891990 -36.517050 83.562569 -41.457765 -9.877519 -17.413856 14.042560 0.415947 -0.648909 0.281552 17.518107 -52.471228 -19.757583 65.885497 71.443744 66.940961 -7.650921 -14.839883 1.340716 0.406243 0.960667 0.184882
-54.962308 56.389071 -20.851353 -177.707386 -16.887590 -0.557922 -0.183353 17.412544 -0.474967 0.001957 1.875789 0.047066 0.025967 3.123277 0.069876 0.118039 15.337460 0.384398 1.034694 9.998519 5.385139 -0.167151 -15.142939 5.642076 -0.472641 -0.887412 1.719667 2.254937 -8.617980 -7.907493 -81.625543 -49.037685 119.402929 -17.197063 -0.027120 -5.786279 -6.820393 -3.371313 1.886245 1.600130 -12.737685 7.947356 65.212022 -45.675012 -112.983739 11.655896 -10.225720 6.483310 -2.599915 -58.696081 11.884858 -36.484417 83.565763 -41.424580 -9.888240 -17.408637 14.039651 0.413171 -0.644731 0.260589 17.519239 -52.462022 -19.755784 65.895264 71.442352 66.953315 -7.661786 -14.842300 1.337060 0.413784 0.962493 0.187627
-54.961668 56.387983 -20.852492 -177.704295 -16.896775 -0.556137 -0.178070 17.422177 -0.476750 0.001491 1.876456 0.045150 0.025060 3.124876 0.071178 0.122588 15.339858 0.380029 1.035445 9.999238 5.379707 -0.176017 -15.147800 5.653421 -0.484084 -0.899153 1.720807 2.270160 -8.615769 -7.905090 -81.630750 -49.035196 119.408692 -17.193611 -0.043841 -5.743384 -6.829186 -3.371118 1.907871 1.605269 -12.740831 7.940509 65.182594 -45.648000 -112.968896 11.643243 -10.227526 6.486895 -2.581134 -58.687388 11.871647 -36.473205 83.566685 -41.407460 -9.890124 -17.407272 14.012372 0.391394 -0.640912 0.258884 17.516453 -52.454343 -19.753550 65.905467 71.441428 66.962920 -7.670077 -14.845460 1.334570 0.415274 0.966195 0.190633
